<svg width="10" height="8" viewBox="0 0 10 8" fill="none" xmlns="http://www.w3.org/2000/svg">
<path d="M4.90237 7.88672L4.2969 7.33984C3.6068 6.71484 3.1055 6.2526 2.793 5.95312C2.4805 5.65365 2.12893 5.28255 1.73831 4.83984C1.3607 4.39714 1.10029 4 0.957059 3.64844C0.81383 3.28385 0.742215 2.91276 0.742215 2.53516C0.742215 1.89714 0.957059 1.35677 1.38675 0.914062C1.82945 0.471354 2.37633 0.25 3.02737 0.25C3.78258 0.25 4.40758 0.542969 4.90237 1.12891C5.39716 0.542969 6.02216 0.25 6.77737 0.25C7.42841 0.25 7.96878 0.471354 8.39847 0.914062C8.84117 1.35677 9.06253 1.89714 9.06253 2.53516C9.06253 3.04297 8.89326 3.57031 8.55472 4.11719C8.21617 4.66406 7.84508 5.13932 7.44143 5.54297C7.05081 5.94661 6.40628 6.55208 5.50784 7.35938L4.90237 7.88672Z" fill="#BC9CFF"/>
</svg>
